<mxfile host="app.diagrams.net" modified="2024-05-20T12:44:04.926Z" agent="Mozilla/5.0 (Windows NT 10.0; Win64; x64) AppleWebKit/537.36 (KHTML, like Gecko) Chrome/123.0.0.0 Safari/537.36 OPR/109.0.0.0 (Edition Yx GX 03)" etag="4NeTOGy01XOi_-uAUYDE" version="24.4.4" type="device">
  <diagram name="Страница — 1" id="RhZ2HOAbU6OGMGOSAibN">
    <mxGraphModel dx="1161" dy="638" grid="1" gridSize="10" guides="1" tooltips="1" connect="1" arrows="1" fold="1" page="1" pageScale="1" pageWidth="827" pageHeight="1169" math="0" shadow="0">
      <root>
        <mxCell id="0" />
        <mxCell id="1" parent="0" />
        <mxCell id="uoOsyEWfGF5N6BF2zzkz-25" style="edgeStyle=orthogonalEdgeStyle;rounded=0;orthogonalLoop=1;jettySize=auto;html=1;entryX=0.5;entryY=0;entryDx=0;entryDy=0;endArrow=open;endFill=0;" edge="1" parent="1" source="uoOsyEWfGF5N6BF2zzkz-4" target="uoOsyEWfGF5N6BF2zzkz-5">
          <mxGeometry relative="1" as="geometry" />
        </mxCell>
        <mxCell id="uoOsyEWfGF5N6BF2zzkz-36" style="rounded=0;orthogonalLoop=1;jettySize=auto;html=1;entryX=1;entryY=0.5;entryDx=0;entryDy=0;endArrow=open;endFill=0;" edge="1" parent="1" source="uoOsyEWfGF5N6BF2zzkz-4" target="uoOsyEWfGF5N6BF2zzkz-35">
          <mxGeometry relative="1" as="geometry" />
        </mxCell>
        <mxCell id="uoOsyEWfGF5N6BF2zzkz-4" value="Описание проблемы" style="rounded=1;whiteSpace=wrap;html=1;" vertex="1" parent="1">
          <mxGeometry x="330" y="180" width="120" height="60" as="geometry" />
        </mxCell>
        <mxCell id="uoOsyEWfGF5N6BF2zzkz-26" style="edgeStyle=orthogonalEdgeStyle;rounded=0;orthogonalLoop=1;jettySize=auto;html=1;entryX=0.5;entryY=0;entryDx=0;entryDy=0;endArrow=open;endFill=0;" edge="1" parent="1" source="uoOsyEWfGF5N6BF2zzkz-5" target="uoOsyEWfGF5N6BF2zzkz-6">
          <mxGeometry relative="1" as="geometry" />
        </mxCell>
        <mxCell id="uoOsyEWfGF5N6BF2zzkz-32" style="rounded=0;orthogonalLoop=1;jettySize=auto;html=1;endArrow=open;endFill=0;" edge="1" parent="1" source="uoOsyEWfGF5N6BF2zzkz-5" target="uoOsyEWfGF5N6BF2zzkz-30">
          <mxGeometry relative="1" as="geometry" />
        </mxCell>
        <mxCell id="uoOsyEWfGF5N6BF2zzkz-5" value="Обсуждение деталей с клиентом" style="rounded=1;whiteSpace=wrap;html=1;" vertex="1" parent="1">
          <mxGeometry x="330" y="270" width="120" height="60" as="geometry" />
        </mxCell>
        <mxCell id="uoOsyEWfGF5N6BF2zzkz-27" style="edgeStyle=orthogonalEdgeStyle;rounded=0;orthogonalLoop=1;jettySize=auto;html=1;entryX=0.5;entryY=0;entryDx=0;entryDy=0;endArrow=open;endFill=0;" edge="1" parent="1" source="uoOsyEWfGF5N6BF2zzkz-6" target="uoOsyEWfGF5N6BF2zzkz-7">
          <mxGeometry relative="1" as="geometry" />
        </mxCell>
        <mxCell id="uoOsyEWfGF5N6BF2zzkz-31" style="rounded=0;orthogonalLoop=1;jettySize=auto;html=1;entryX=1;entryY=0.25;entryDx=0;entryDy=0;endArrow=open;endFill=0;" edge="1" parent="1" source="uoOsyEWfGF5N6BF2zzkz-6" target="uoOsyEWfGF5N6BF2zzkz-30">
          <mxGeometry relative="1" as="geometry" />
        </mxCell>
        <mxCell id="uoOsyEWfGF5N6BF2zzkz-6" value="Составление заявки" style="rounded=1;whiteSpace=wrap;html=1;" vertex="1" parent="1">
          <mxGeometry x="330" y="360" width="120" height="60" as="geometry" />
        </mxCell>
        <mxCell id="uoOsyEWfGF5N6BF2zzkz-28" style="edgeStyle=orthogonalEdgeStyle;rounded=0;orthogonalLoop=1;jettySize=auto;html=1;endArrow=open;endFill=0;" edge="1" parent="1" source="uoOsyEWfGF5N6BF2zzkz-7" target="uoOsyEWfGF5N6BF2zzkz-8">
          <mxGeometry relative="1" as="geometry" />
        </mxCell>
        <mxCell id="uoOsyEWfGF5N6BF2zzkz-7" value="Выдача договор на подпись" style="rounded=1;whiteSpace=wrap;html=1;" vertex="1" parent="1">
          <mxGeometry x="330" y="450" width="120" height="60" as="geometry" />
        </mxCell>
        <mxCell id="uoOsyEWfGF5N6BF2zzkz-41" style="edgeStyle=orthogonalEdgeStyle;rounded=0;orthogonalLoop=1;jettySize=auto;html=1;entryX=0.5;entryY=0;entryDx=0;entryDy=0;endArrow=open;endFill=0;" edge="1" parent="1" source="uoOsyEWfGF5N6BF2zzkz-8" target="uoOsyEWfGF5N6BF2zzkz-38">
          <mxGeometry relative="1" as="geometry" />
        </mxCell>
        <mxCell id="uoOsyEWfGF5N6BF2zzkz-8" value="Уведомление о результате работы" style="rounded=1;whiteSpace=wrap;html=1;" vertex="1" parent="1">
          <mxGeometry x="330" y="540" width="120" height="60" as="geometry" />
        </mxCell>
        <mxCell id="uoOsyEWfGF5N6BF2zzkz-23" style="rounded=0;orthogonalLoop=1;jettySize=auto;html=1;entryX=1;entryY=0.75;entryDx=0;entryDy=0;endArrow=none;endFill=0;" edge="1" parent="1" source="uoOsyEWfGF5N6BF2zzkz-13" target="uoOsyEWfGF5N6BF2zzkz-7">
          <mxGeometry relative="1" as="geometry" />
        </mxCell>
        <mxCell id="uoOsyEWfGF5N6BF2zzkz-24" style="rounded=0;orthogonalLoop=1;jettySize=auto;html=1;entryX=1;entryY=0.5;entryDx=0;entryDy=0;endArrow=none;endFill=0;" edge="1" parent="1" source="uoOsyEWfGF5N6BF2zzkz-13" target="uoOsyEWfGF5N6BF2zzkz-8">
          <mxGeometry relative="1" as="geometry" />
        </mxCell>
        <mxCell id="uoOsyEWfGF5N6BF2zzkz-13" value="Система" style="shape=umlActor;verticalLabelPosition=bottom;verticalAlign=top;html=1;outlineConnect=0;" vertex="1" parent="1">
          <mxGeometry x="650" y="410" width="30" height="60" as="geometry" />
        </mxCell>
        <mxCell id="uoOsyEWfGF5N6BF2zzkz-20" style="rounded=0;orthogonalLoop=1;jettySize=auto;html=1;entryX=1;entryY=0.5;entryDx=0;entryDy=0;endArrow=none;endFill=0;" edge="1" parent="1" source="uoOsyEWfGF5N6BF2zzkz-14" target="uoOsyEWfGF5N6BF2zzkz-7">
          <mxGeometry relative="1" as="geometry" />
        </mxCell>
        <mxCell id="uoOsyEWfGF5N6BF2zzkz-21" style="rounded=0;orthogonalLoop=1;jettySize=auto;html=1;entryX=1;entryY=0.5;entryDx=0;entryDy=0;endArrow=none;endFill=0;" edge="1" parent="1" source="uoOsyEWfGF5N6BF2zzkz-14" target="uoOsyEWfGF5N6BF2zzkz-6">
          <mxGeometry relative="1" as="geometry" />
        </mxCell>
        <mxCell id="uoOsyEWfGF5N6BF2zzkz-22" style="rounded=0;orthogonalLoop=1;jettySize=auto;html=1;entryX=1;entryY=0.5;entryDx=0;entryDy=0;endArrow=none;endFill=0;" edge="1" parent="1" source="uoOsyEWfGF5N6BF2zzkz-14" target="uoOsyEWfGF5N6BF2zzkz-5">
          <mxGeometry relative="1" as="geometry" />
        </mxCell>
        <mxCell id="uoOsyEWfGF5N6BF2zzkz-14" value="Менеджер по тех.заявкам" style="shape=umlActor;verticalLabelPosition=bottom;verticalAlign=top;html=1;outlineConnect=0;" vertex="1" parent="1">
          <mxGeometry x="560" y="525" width="30" height="60" as="geometry" />
        </mxCell>
        <mxCell id="uoOsyEWfGF5N6BF2zzkz-16" style="rounded=0;orthogonalLoop=1;jettySize=auto;html=1;entryX=1;entryY=0.5;entryDx=0;entryDy=0;endArrow=none;endFill=0;" edge="1" parent="1" source="uoOsyEWfGF5N6BF2zzkz-15" target="uoOsyEWfGF5N6BF2zzkz-4">
          <mxGeometry relative="1" as="geometry" />
        </mxCell>
        <mxCell id="uoOsyEWfGF5N6BF2zzkz-15" value="Клиент" style="shape=umlActor;verticalLabelPosition=bottom;verticalAlign=top;html=1;outlineConnect=0;" vertex="1" parent="1">
          <mxGeometry x="580" y="210" width="30" height="60" as="geometry" />
        </mxCell>
        <mxCell id="uoOsyEWfGF5N6BF2zzkz-19" style="edgeStyle=orthogonalEdgeStyle;rounded=0;orthogonalLoop=1;jettySize=auto;html=1;endArrow=open;endFill=0;" edge="1" parent="1" source="uoOsyEWfGF5N6BF2zzkz-17" target="uoOsyEWfGF5N6BF2zzkz-4">
          <mxGeometry relative="1" as="geometry" />
        </mxCell>
        <mxCell id="uoOsyEWfGF5N6BF2zzkz-17" value="" style="ellipse;whiteSpace=wrap;html=1;aspect=fixed;fillColor=#000000;" vertex="1" parent="1">
          <mxGeometry x="365" y="90" width="50" height="50" as="geometry" />
        </mxCell>
        <mxCell id="uoOsyEWfGF5N6BF2zzkz-18" value="ActivityInitial" style="text;html=1;align=center;verticalAlign=middle;whiteSpace=wrap;rounded=0;" vertex="1" parent="1">
          <mxGeometry x="365" y="140" width="60" height="30" as="geometry" />
        </mxCell>
        <mxCell id="uoOsyEWfGF5N6BF2zzkz-30" value="База данных договоров" style="rounded=0;whiteSpace=wrap;html=1;" vertex="1" parent="1">
          <mxGeometry x="60" y="450" width="120" height="60" as="geometry" />
        </mxCell>
        <mxCell id="uoOsyEWfGF5N6BF2zzkz-34" style="rounded=0;orthogonalLoop=1;jettySize=auto;html=1;entryX=0;entryY=0.5;entryDx=0;entryDy=0;endArrow=open;endFill=0;" edge="1" parent="1" source="uoOsyEWfGF5N6BF2zzkz-33" target="uoOsyEWfGF5N6BF2zzkz-6">
          <mxGeometry relative="1" as="geometry" />
        </mxCell>
        <mxCell id="uoOsyEWfGF5N6BF2zzkz-33" value="Форма заявки" style="rounded=0;whiteSpace=wrap;html=1;" vertex="1" parent="1">
          <mxGeometry x="60" y="270" width="120" height="60" as="geometry" />
        </mxCell>
        <mxCell id="uoOsyEWfGF5N6BF2zzkz-37" style="rounded=0;orthogonalLoop=1;jettySize=auto;html=1;entryX=0;entryY=0.5;entryDx=0;entryDy=0;endArrow=open;endFill=0;" edge="1" parent="1" source="uoOsyEWfGF5N6BF2zzkz-35" target="uoOsyEWfGF5N6BF2zzkz-5">
          <mxGeometry relative="1" as="geometry" />
        </mxCell>
        <mxCell id="uoOsyEWfGF5N6BF2zzkz-35" value="Первичное описание проблемы, информации об устройстве" style="rounded=0;whiteSpace=wrap;html=1;" vertex="1" parent="1">
          <mxGeometry x="70" y="150" width="120" height="60" as="geometry" />
        </mxCell>
        <mxCell id="uoOsyEWfGF5N6BF2zzkz-38" value="" style="ellipse;whiteSpace=wrap;html=1;aspect=fixed;" vertex="1" parent="1">
          <mxGeometry x="367.5" y="630" width="45" height="45" as="geometry" />
        </mxCell>
        <mxCell id="uoOsyEWfGF5N6BF2zzkz-39" value="" style="ellipse;whiteSpace=wrap;html=1;aspect=fixed;fillColor=#000000;" vertex="1" parent="1">
          <mxGeometry x="375" y="637.5" width="30" height="30" as="geometry" />
        </mxCell>
        <mxCell id="uoOsyEWfGF5N6BF2zzkz-40" value="ActivityFinal" style="text;html=1;align=center;verticalAlign=middle;whiteSpace=wrap;rounded=0;" vertex="1" parent="1">
          <mxGeometry x="360" y="675.5" width="60" height="30" as="geometry" />
        </mxCell>
      </root>
    </mxGraphModel>
  </diagram>
</mxfile>
